Poster: 
http://imgr.us/images/x46mz4s5b5mxz7h87pzr.jpg

Info:

Format : Matroska
Format version : Version 2
File size : 709 MiB
Duration : 2h 44mn
Overall bit rate : 603 Kbps
Encoded date : UTC 2012-11-20 08:06:21
Writing application : mkvmerge v5.8.0 ('No Sleep / Pillow') built on Sep 2 2012 15:37:04
Writing library : libebml v1.2.3 + libmatroska v1.3.0

Video
ID : 1
Format : MPEG-4 Visual
Format profile : Advanced Simple@L5
Format settings, BVOP : Yes
Format settings, QPel : Yes
Format settings, GMC : No warppoints
Format settings, Matrix : Default (H.263)
Codec ID : V_MPEG4/ISO/ASP
Codec ID/Info : Advanced Simple Profile
Duration : 2h 44mn
Bit rate : 463 Kbps
Width : 608 pixels
Height : 256 pixels
Display aspect ratio : 2.40:1
Frame rate : 25.000 fps
Color space : YUV
Chroma subsampling : 4:2:0
Bit depth : 8 bits
Scan type : Progressive
Compression mode : Lossy
Bits/(Pixel*Frame) : 0.119
Stream size : 544 MiB (77%)
Writing library : XviD 1.2.1 (UTC 2008-12-04)
Language : English
Default : Yes
Forced : No

Audio
ID : 2
Format : MPEG Audio
Format version : Version 2
Format profile : Layer 3
Mode : Joint stereo
Muxing mode : Header stripping
Codec ID : A_MPEG/L3
Codec ID/Hint : MP3
Duration : 39mn 0s
Bit rate mode : Constant
Bit rate : 128 Kbps
Channel(s) : 2 channels
Sampling rate : 24.0 KHz
Compression mode : Lossy
Stream size : 35.7 MiB (5%)
Writing library : LAME3.99r
Encoding settings : -m j -V 4 -q 2 -lowpass 12 -b 128
Default : Yes
Forced : No


Screens: 
http://imgr.us/images/cz9c3in3k8ceur57isj.jpg 
http://imgr.us/images/y64leetp6u41d525fv.jpg 
http://imgr.us/images/tgl15p0w4s2mi6j2zi.jpg 
http://imgr.us/images/8b4vj4r1qjzp5tk48gjg.jpg
